<svg width="59" height="59" viewBox="0 0 59 59" fill="none" xmlns="http://www.w3.org/2000/svg">
<circle cx="29.5" cy="29.5" r="29" stroke="white"/>
<path d="M24.747 26C25.317 26.0002 25.8656 26.2167 26.2821 26.6057C26.6986 26.9948 26.952 27.5274 26.991 28.096L26.997 28.25V39.75C26.9971 40.3203 26.7805 40.8693 26.3913 41.2861C26.002 41.7028 25.469 41.9562 24.9 41.995L24.747 42H19.25C18.6799 42.0001 18.131 41.7837 17.7142 41.3946C17.2975 41.0056 17.044 40.4728 17.005 39.904L17 39.75V28.25C16.9999 27.6799 17.2163 27.131 17.6054 26.7142C17.9944 26.2975 18.5272 26.044 19.096 26.005L19.25 26H24.747ZM24.747 27.5H19.25C19.0688 27.5 18.8937 27.5656 18.7571 27.6848C18.6205 27.8039 18.5316 27.9684 18.507 28.148L18.5 28.25V39.75C18.5 40.13 18.782 40.444 19.148 40.493L19.25 40.5H24.747C24.9282 40.5 25.1033 40.4344 25.2399 40.3152C25.3765 40.1961 25.4654 40.0316 25.49 39.852L25.497 39.75V28.25C25.497 28.0686 25.4312 27.8934 25.3119 27.7568C25.1925 27.6202 25.0277 27.5314 24.848 27.507L24.747 27.5ZM22.75 37.5C22.94 37.5001 23.1229 37.5722 23.2618 37.702C23.4006 37.8317 23.4851 38.0093 23.498 38.1989C23.511 38.3885 23.4515 38.5759 23.3316 38.7233C23.2117 38.8707 23.0403 38.9671 22.852 38.993L22.75 39H21.249C21.059 38.9999 20.8761 38.9278 20.7372 38.798C20.5984 38.6683 20.5139 38.4907 20.501 38.3011C20.488 38.1115 20.5475 37.9241 20.6674 37.7767C20.7873 37.6293 20.9587 37.5329 21.147 37.507L21.249 37.5H22.75ZM38.753 18C39.323 18.0002 39.8716 18.2167 40.2881 18.6057C40.7046 18.9948 40.958 19.5274 40.997 20.096L41.003 20.25V31.5C41.0031 32.0701 40.7867 32.619 40.3976 33.0358C40.0086 33.4525 39.4758 33.706 38.907 33.745L38.753 33.75H33.998V36.5H35.25C35.44 36.5001 35.6229 36.5722 35.7618 36.702C35.9006 36.8317 35.9851 37.0093 35.998 37.1989C36.011 37.3885 35.9515 37.5759 35.8316 37.7233C35.7117 37.8707 35.5402 37.9671 35.352 37.993L35.25 38H28V36.5H32.498V33.75H28V32.25H38.753C38.9342 32.25 39.1093 32.1844 39.2459 32.0652C39.3825 31.9461 39.4714 31.7816 39.496 31.602L39.503 31.5V20.25C39.503 20.0686 39.4372 19.8934 39.3179 19.7568C39.1985 19.6202 39.0337 19.5314 38.854 19.507L38.753 19.5H22.25C22.0688 19.5 21.8937 19.5656 21.7571 19.6848C21.6205 19.8039 21.5316 19.9684 21.507 20.148L21.5 20.25V25H20V20.25C19.9999 19.6799 20.2163 19.131 20.6054 18.7142C20.9944 18.2975 21.5272 18.044 22.096 18.005L22.25 18H38.753Z" fill="white"/>
</svg>
