<svg width="59" height="59" viewBox="0 0 59 59" fill="none" xmlns="http://www.w3.org/2000/svg">
<circle cx="29.5" cy="29.5" r="29" stroke="white"/>
<path d="M19.2857 38.2857C18.6571 38.2857 18.1192 38.0621 17.672 37.6149C17.224 37.1669 17 36.6286 17 36V22.2857C17 21.6571 17.224 21.1189 17.672 20.6709C18.1192 20.2236 18.6571 20 19.2857 20L21.5714 24.5714H25L22.7143 20H25L27.2857 24.5714H30.7143L28.4286 20H30.7143L33 24.5714H36.4286L34.1429 20H37.5714C38.2 20 38.7383 20.2236 39.1863 20.6709C39.6335 21.1189 39.8571 21.6571 39.8571 22.2857V26.8571H19.2857V36H28.4286V38.2857H19.2857ZM36.6 31.0857L39.0571 33.4857L33.4857 39.0857C33.3714 39.2 33.243 39.2857 33.1006 39.3429C32.9573 39.4 32.8095 39.4286 32.6571 39.4286H31.2857C31.1333 39.4286 31 39.3714 30.8857 39.2571C30.7714 39.1429 30.7143 39.0095 30.7143 38.8571V37.4857C30.7143 37.3333 30.7478 37.181 30.8149 37.0286C30.8811 36.8762 30.9619 36.7524 31.0571 36.6571L36.6 31.0857ZM39.8857 32.6857L37.4571 30.2571L38.2571 29.4571C38.4857 29.2286 38.7619 29.1143 39.0857 29.1143C39.4095 29.1143 39.6762 29.2286 39.8857 29.4571L40.6857 30.2857C40.8952 30.5143 41 30.7855 41 31.0994C41 31.4141 40.8952 31.6762 40.6857 31.8857L39.8857 32.6857Z" fill="white"/>
</svg>
