<svg width="60" height="59" viewBox="0 0 60 59" fill="none" xmlns="http://www.w3.org/2000/svg">
<path d="M58.7252 29.5C58.7252 45.5145 45.6928 58.5 29.6126 58.5C13.5324 58.5 0.5 45.5145 0.5 29.5C0.5 13.4855 13.5324 0.5 29.6126 0.5C45.6928 0.5 58.7252 13.4855 58.7252 29.5Z" stroke="white"/>
<path d="M38.7474 21C39.3863 21 39.9991 21.2529 40.4509 21.7029C40.9027 22.153 41.1565 22.7635 41.1565 23.4V35.4C41.1565 36.0365 40.9027 36.647 40.4509 37.0971C39.9991 37.5471 39.3863 37.8 38.7474 37.8H19.4741C18.8352 37.8 18.2224 37.5471 17.7706 37.0971C17.3188 36.647 17.0649 36.0365 17.0649 35.4V23.4C17.0649 22.068 18.137 21 19.4741 21H38.7474ZM20.6787 34.2H37.5428L32.1222 27L27.9062 32.4L24.8947 28.8L20.6787 34.2Z" fill="white"/>
</svg>
